<svg width="100" height="100" viewBox="0 0 100 100" xmlns="http://www.w3.org/2000/svg">
  <!-- Background circle -->
  <circle cx="50" cy="50" r="45" fill="#FEF3C7" stroke="#F59E0B" stroke-width="2"/>
  
  <!-- Fox ears -->
  <polygon points="35,25 30,10 45,20" fill="#F97316"/>
  <polygon points="65,25 70,10 55,20" fill="#F97316"/>
  
  <!-- Inner ears -->
  <polygon points="37,22 33,14 42,19" fill="#FED7AA"/>
  <polygon points="63,22 67,14 58,19" fill="#FED7AA"/>
  
  <!-- Fox head -->
  <ellipse cx="50" cy="45" rx="20" ry="18" fill="#F97316"/>
  
  <!-- Fox snout -->
  <ellipse cx="50" cy="52" rx="8" ry="6" fill="#FED7AA"/>
  
  <!-- Eyes -->
  <circle cx="44" cy="40" r="3" fill="#1F2937"/>
  <circle cx="56" cy="40" r="3" fill="#1F2937"/>
  <circle cx="45" cy="39" r="1" fill="#FFFFFF"/>
  <circle cx="57" cy="39" r="1" fill="#FFFFFF"/>
  
  <!-- Nose -->
  <circle cx="50" cy="50" r="2" fill="#1F2937"/>
  
  <!-- Mouth -->
  <path d="M 50 52 Q 47 55 44 53" stroke="#1F2937" stroke-width="1.5" fill="none"/>
  <path d="M 50 52 Q 53 55 56 53" stroke="#1F2937" stroke-width="1.5" fill="none"/>
  
  <!-- Body -->
  <ellipse cx="50" cy="75" rx="15" ry="12" fill="#F97316"/>
</svg> 