<svg width="100" height="100" viewBox="0 0 100 100" xmlns="http://www.w3.org/2000/svg">
  <ellipse cx="50" cy="50" rx="4" ry="25" fill="#4A4A4A"/>
  <ellipse cx="35" cy="35" rx="15" ry="20" fill="#9966CC" stroke="#7A4D9B" stroke-width="1" transform="rotate(-30 35 35)"/>
  <ellipse cx="65" cy="35" rx="15" ry="20" fill="#9966CC" stroke="#7A4D9B" stroke-width="1" transform="rotate(30 65 35)"/>
  <ellipse cx="35" cy="65" rx="12" ry="15" fill="#FF69B4" stroke="#E14C8C" stroke-width="1" transform="rotate(-30 35 65)"/>
  <ellipse cx="65" cy="65" rx="12" ry="15" fill="#FF69B4" stroke="#E14C8C" stroke-width="1" transform="rotate(30 65 65)"/>
  <circle cx="48" cy="28" r="3" fill="#4A4A4A"/>
  <circle cx="52" cy="28" r="3" fill="#4A4A4A"/>
  <path d="M 45 25 Q 40 20 35 22" stroke="#4A4A4A" stroke-width="1" fill="none"/>
  <path d="M 55 25 Q 60 20 65 22" stroke="#4A4A4A" stroke-width="1" fill="none"/>
  <circle cx="30" cy="30" r="2" fill="#FFD700"/>
  <circle cx="70" cy="30" r="2" fill="#FFD700"/>
  <circle cx="30" cy="60" r="2" fill="#FFD700"/>
  <circle cx="70" cy="60" r="2" fill="#FFD700"/>
</svg> 